<svg width="86" height="272" xmlns="http://www.w3.org/2000/svg" xmlns:xlink="http://www.w3.org/1999/xlink" overflow="hidden"><g transform="translate(-295 -123)"><path d="M354.5 124.5 341.5 137.5 328.5 124.5Z" stroke="#ADB9CA" stroke-width="0.333333" stroke-miterlimit="8" fill="none" fill-rule="evenodd"/><path d="M339 137.5 340 135 342 135 343 137.5 342 140 340 140Z" stroke="#ADB9CA" stroke-width="4" stroke-miterlimit="8" fill="#ADB9CA" fill-rule="evenodd"/><path d="M318.507 201.484 313.579 125.03 319.815 124.371 330.977 200.166Z" stroke="#ADB9CA" stroke-width="1.33333" stroke-miterlimit="8" fill="#ADB9CA" fill-rule="evenodd"/><path d="M303.5 232.5 320.049 200.5 355.951 200.5 372.5 232.5Z" stroke="#ADB9CA" stroke-width="1.33333" stroke-miterlimit="8" fill="#ADB9CA" fill-rule="evenodd"/><path d="M372.5 232.5 365.536 393.5 310.464 393.5 303.5 232.5Z" stroke="#ADB9CA" stroke-width="1.33333" stroke-miterlimit="8" fill="#ADB9CA" fill-rule="evenodd"/><path d="M368.5 158.5 353.712 232.5 323.288 232.5 308.5 158.5Z" stroke="#ADB9CA" stroke-width="1.33333" stroke-miterlimit="8" fill="#ADB9CA" fill-rule="evenodd"/><path d="M320.5 158.5 320.5 137.5 366.5 158.5Z" stroke="#ADB9CA" stroke-width="1.33333" stroke-miterlimit="8" fill="#ADB9CA" fill-rule="evenodd"/><path d="M308.5 158.5 315.92 137.5 316.5 158.5Z" stroke="#ADB9CA" stroke-width="1.33333" stroke-miterlimit="8" fill="#ADB9CA" fill-rule="evenodd"/><path d="M366.5 393.5 366.5 339.5 379.5 393.5Z" stroke="#ADB9CA" stroke-width="1.33333" stroke-miterlimit="8" fill="#ADB9CA" fill-rule="evenodd"/><path d="M0 54 0 0 14 54Z" stroke="#ADB9CA" stroke-width="1.33333" stroke-miterlimit="8" fill="#ADB9CA" fill-rule="evenodd" transform="matrix(-1 0 0 1 311.5 339.5)"/></g></svg>