<svg width="125" height="289" xmlns="http://www.w3.org/2000/svg" xmlns:xlink="http://www.w3.org/1999/xlink" overflow="hidden"><g transform="translate(-148 -109)"><path d="M240 235 237.944 272 181.056 272 179 235Z" stroke="#ADB9CA" stroke-width="4" stroke-miterlimit="8" fill="#ADB9CA" fill-rule="evenodd"/><path d="M210.364 236.585 194.758 395.091 171.824 393.53 177.839 234.371Z" stroke="#ADB9CA" stroke-width="4" stroke-miterlimit="8" fill="#ADB9CA" fill-rule="evenodd"/><path d="M241.911 234.623 244.5 393.875 221.538 394.942 209.346 236.136Z" stroke="#ADB9CA" stroke-width="4" stroke-miterlimit="8" fill="#ADB9CA" fill-rule="evenodd"/><path d="M200 199 205.728 124 213.272 124 219 199Z" fill="#ADB9CA" fill-rule="evenodd"/><path d="M218 199 209 212 200 199Z" fill="#ADB9CA" fill-rule="evenodd"/><path d="M204 116.82 210 113 216 116.82 213.708 123 206.292 123Z" stroke="#ADB9CA" stroke-width="4" stroke-miterlimit="8" fill="#ADB9CA" fill-rule="evenodd"/><path d="M183.377 130.906 165.329 223.734 150.896 221.409 162.909 127.609Z" stroke="#ADB9CA" stroke-width="4" stroke-miterlimit="8" fill="#ADB9CA" fill-rule="evenodd"/><path d="M184.3 123.457 197.838 225.364 183.411 227.719 163.838 126.797Z" stroke="#ADB9CA" stroke-width="4" stroke-miterlimit="8" fill="#ADB9CA" fill-rule="evenodd"/><path d="M181.144 225.969 173.976 221.526 179.088 214.818Z" stroke="#ADB9CA" stroke-width="4" stroke-miterlimit="8" fill="#ADB9CA" fill-rule="evenodd"/><path d="M0 94.517 3.05682 0 17.6756 0 20.7324 94.517Z" stroke="#ADB9CA" stroke-width="4" stroke-miterlimit="8" fill="#ADB9CA" fill-rule="evenodd" transform="matrix(0.987275 -0.159025 -0.159025 -0.987275 252.281 224.22)"/><path d="M0 102.756 3.05675 0 17.6755 0 20.7323 102.756Z" stroke="#ADB9CA" stroke-width="4" stroke-miterlimit="8" fill="#ADB9CA" fill-rule="evenodd" transform="matrix(0.986936 0.161113 0.161113 -0.986936 219.773 224.871)"/><path d="M0 6.24325 5.66929 0 11.3386 6.24325Z" stroke="#ADB9CA" stroke-width="4" stroke-miterlimit="8" fill="#ADB9CA" fill-rule="evenodd" transform="matrix(0.181367 -0.983416 -0.983416 -0.181367 246.16 226.886)"/><path d="M220.119 115.095 239.107 111.769 240.199 115.139 222.869 123.582Z" stroke="#ADB9CA" stroke-width="4" stroke-miterlimit="8" fill="#ADB9CA" fill-rule="evenodd"/><path d="M0 19.0894 2.68952 0 6.23153 0 8.92105 19.0894Z" stroke="#ADB9CA" stroke-width="4" stroke-miterlimit="8" fill="#ADB9CA" fill-rule="evenodd" transform="matrix(-0.308256 0.951304 0.951304 0.308256 181.989 109.086)"/></g></svg>